# xmcd CD database file
#
# Track frame offsets:
#	150
#	18336
#	49047
#	71774
#	105312
#	131383
#	150155
#	177369
#	196405
#	223158
#	242445
#	264169
#
# Disc length: 3766 seconds
#
# Revision: 0
# Processed by: cddbd v1.5.2PL0 Copyright (c) Steve Scherf et al.
# Submitted via: CDex 1.51
#
DISCID=960eb40c
DTITLE=Oliver Shanti and Friends - TAI CHI (COLETANEA PESSOAL)
DYEAR=1900
DGENRE=New Age
TTITLE0=Faixa 1
TTITLE1=Faixa 2
TTITLE2=Faixa 3
TTITLE3=Faixa 4
TTITLE4=Faixa 5
TTITLE5=Faixa 6
TTITLE6=Faixa 7
TTITLE7=Faixa 8
TTITLE8=Faixa 9
TTITLE9=Faixa 10
TTITLE10=Faixa 11
TTITLE11=Faixa 12
EXTD=
EXTT0=
EXTT1=
EXTT2=
EXTT3=
EXTT4=
EXTT5=
EXTT6=
EXTT7=
EXTT8=
EXTT9=
EXTT10=
EXTT11=
PLAYORDER=
